<mxfile host="app.diagrams.net" agent="Mozilla/5.0 (Macintosh; Intel Mac OS X 10.15; rv:144.0) Gecko/20100101 Firefox/144.0" version="28.2.7">
  <diagram id="C5RBs43oDa-KdzZeNtuy" name="Page-1">
    <mxGraphModel dx="2006" dy="671" grid="1" gridSize="10" guides="1" tooltips="1" connect="1" arrows="1" fold="1" page="1" pageScale="1" pageWidth="827" pageHeight="1169" math="0" shadow="0">
      <root>
        <mxCell id="WIyWlLk6GJQsqaUBKTNV-0" />
        <mxCell id="WIyWlLk6GJQsqaUBKTNV-1" parent="WIyWlLk6GJQsqaUBKTNV-0" />
        <mxCell id="grpiTjjE9wJJ2SHxIWQ4-8" value="Inventory" style="swimlane;fontStyle=0;childLayout=stackLayout;horizontal=1;startSize=30;horizontalStack=0;resizeParent=1;resizeParentMax=0;resizeLast=0;collapsible=1;marginBottom=0;whiteSpace=wrap;html=1;" parent="WIyWlLk6GJQsqaUBKTNV-1" vertex="1">
          <mxGeometry x="176" y="80" width="140" height="110" as="geometry">
            <mxRectangle x="310" y="100" width="90" height="30" as="alternateBounds" />
          </mxGeometry>
        </mxCell>
        <mxCell id="grpiTjjE9wJJ2SHxIWQ4-156" value="book1 (Book)" style="rounded=1;whiteSpace=wrap;html=1;fillColor=#CBFFAE80;" parent="grpiTjjE9wJJ2SHxIWQ4-8" vertex="1">
          <mxGeometry y="30" width="140" height="40" as="geometry" />
        </mxCell>
        <mxCell id="grpiTjjE9wJJ2SHxIWQ4-157" value="book2 (Book)" style="rounded=1;whiteSpace=wrap;html=1;fillColor=#CBFFAE80;" parent="grpiTjjE9wJJ2SHxIWQ4-8" vertex="1">
          <mxGeometry y="70" width="140" height="40" as="geometry" />
        </mxCell>
        <mxCell id="grpiTjjE9wJJ2SHxIWQ4-15" value="&lt;h3&gt;&lt;font style=&quot;font-size: 18px;&quot;&gt;Book&lt;/font&gt;&lt;/h3&gt;" style="swimlane;whiteSpace=wrap;html=1;" parent="WIyWlLk6GJQsqaUBKTNV-1" vertex="1">
          <mxGeometry x="360" y="120" width="200" height="200" as="geometry" />
        </mxCell>
        <mxCell id="grpiTjjE9wJJ2SHxIWQ4-16" value="Instance Variables" style="swimlane;fontStyle=0;childLayout=stackLayout;horizontal=1;startSize=30;horizontalStack=0;resizeParent=1;resizeParentMax=0;resizeLast=0;collapsible=1;marginBottom=0;whiteSpace=wrap;html=1;" parent="grpiTjjE9wJJ2SHxIWQ4-15" vertex="1">
          <mxGeometry x="30" y="26" width="140" height="150" as="geometry" />
        </mxCell>
        <mxCell id="grpiTjjE9wJJ2SHxIWQ4-17" value="name (str)" style="text;strokeColor=none;fillColor=none;align=left;verticalAlign=middle;spacingLeft=4;spacingRight=4;overflow=hidden;points=[[0,0.5],[1,0.5]];portConstraint=eastwest;rotatable=0;whiteSpace=wrap;html=1;" parent="grpiTjjE9wJJ2SHxIWQ4-16" vertex="1">
          <mxGeometry y="30" width="140" height="30" as="geometry" />
        </mxCell>
        <mxCell id="grpiTjjE9wJJ2SHxIWQ4-18" value="author (str)" style="text;strokeColor=none;fillColor=none;align=left;verticalAlign=middle;spacingLeft=4;spacingRight=4;overflow=hidden;points=[[0,0.5],[1,0.5]];portConstraint=eastwest;rotatable=0;whiteSpace=wrap;html=1;" parent="grpiTjjE9wJJ2SHxIWQ4-16" vertex="1">
          <mxGeometry y="60" width="140" height="30" as="geometry" />
        </mxCell>
        <mxCell id="grpiTjjE9wJJ2SHxIWQ4-20" value="copies (list[dict])" style="text;strokeColor=none;fillColor=none;align=left;verticalAlign=middle;spacingLeft=4;spacingRight=4;overflow=hidden;points=[[0,0.5],[1,0.5]];portConstraint=eastwest;rotatable=0;whiteSpace=wrap;html=1;" parent="grpiTjjE9wJJ2SHxIWQ4-16" vertex="1">
          <mxGeometry y="90" width="140" height="30" as="geometry" />
        </mxCell>
        <mxCell id="grpiTjjE9wJJ2SHxIWQ4-21" value="waitlist (Waitlist)" style="text;strokeColor=none;fillColor=none;align=left;verticalAlign=middle;spacingLeft=4;spacingRight=4;overflow=hidden;points=[[0,0.5],[1,0.5]];portConstraint=eastwest;rotatable=0;whiteSpace=wrap;html=1;" parent="grpiTjjE9wJJ2SHxIWQ4-16" vertex="1">
          <mxGeometry y="120" width="140" height="30" as="geometry" />
        </mxCell>
        <mxCell id="grpiTjjE9wJJ2SHxIWQ4-77" style="edgeStyle=orthogonalEdgeStyle;rounded=0;orthogonalLoop=1;jettySize=auto;html=1;exitX=1;exitY=0.5;exitDx=0;exitDy=0;" parent="grpiTjjE9wJJ2SHxIWQ4-16" source="grpiTjjE9wJJ2SHxIWQ4-20" target="grpiTjjE9wJJ2SHxIWQ4-20" edge="1">
          <mxGeometry relative="1" as="geometry" />
        </mxCell>
        <mxCell id="grpiTjjE9wJJ2SHxIWQ4-70" value="&lt;font style=&quot;font-size: 18px;&quot;&gt;User&lt;/font&gt;" style="swimlane;whiteSpace=wrap;html=1;" parent="WIyWlLk6GJQsqaUBKTNV-1" vertex="1">
          <mxGeometry x="570" y="520" width="200" height="200" as="geometry" />
        </mxCell>
        <mxCell id="grpiTjjE9wJJ2SHxIWQ4-71" value="Instance Variables" style="swimlane;fontStyle=0;childLayout=stackLayout;horizontal=1;startSize=30;horizontalStack=0;resizeParent=1;resizeParentMax=0;resizeLast=0;collapsible=1;marginBottom=0;whiteSpace=wrap;html=1;" parent="grpiTjjE9wJJ2SHxIWQ4-70" vertex="1">
          <mxGeometry x="30" y="30" width="140" height="120" as="geometry" />
        </mxCell>
        <mxCell id="grpiTjjE9wJJ2SHxIWQ4-72" value="username (str)" style="text;strokeColor=none;fillColor=none;align=left;verticalAlign=middle;spacingLeft=4;spacingRight=4;overflow=hidden;points=[[0,0.5],[1,0.5]];portConstraint=eastwest;rotatable=0;whiteSpace=wrap;html=1;" parent="grpiTjjE9wJJ2SHxIWQ4-71" vertex="1">
          <mxGeometry y="30" width="140" height="30" as="geometry" />
        </mxCell>
        <mxCell id="grpiTjjE9wJJ2SHxIWQ4-73" value="items_checked_out (list)" style="text;strokeColor=none;fillColor=none;align=left;verticalAlign=middle;spacingLeft=4;spacingRight=4;overflow=hidden;points=[[0,0.5],[1,0.5]];portConstraint=eastwest;rotatable=0;whiteSpace=wrap;html=1;" parent="grpiTjjE9wJJ2SHxIWQ4-71" vertex="1">
          <mxGeometry y="60" width="140" height="30" as="geometry" />
        </mxCell>
        <mxCell id="grpiTjjE9wJJ2SHxIWQ4-74" value="items_on_hold (list)" style="text;strokeColor=none;fillColor=none;align=left;verticalAlign=middle;spacingLeft=4;spacingRight=4;overflow=hidden;points=[[0,0.5],[1,0.5]];portConstraint=eastwest;rotatable=0;whiteSpace=wrap;html=1;" parent="grpiTjjE9wJJ2SHxIWQ4-71" vertex="1">
          <mxGeometry y="90" width="140" height="30" as="geometry" />
        </mxCell>
        <mxCell id="grpiTjjE9wJJ2SHxIWQ4-86" value="&lt;font style=&quot;font-size: 18px;&quot;&gt;Waitlist&lt;/font&gt;" style="swimlane;whiteSpace=wrap;html=1;" parent="WIyWlLk6GJQsqaUBKTNV-1" vertex="1">
          <mxGeometry x="20" y="330" width="200" height="350" as="geometry" />
        </mxCell>
        <mxCell id="grpiTjjE9wJJ2SHxIWQ4-88" value="Instance Variables" style="swimlane;fontStyle=0;childLayout=stackLayout;horizontal=1;startSize=30;horizontalStack=0;resizeParent=1;resizeParentMax=0;resizeLast=0;collapsible=1;marginBottom=0;whiteSpace=wrap;html=1;" parent="grpiTjjE9wJJ2SHxIWQ4-86" vertex="1">
          <mxGeometry x="20" y="35" width="160" height="150" as="geometry" />
        </mxCell>
        <mxCell id="grpiTjjE9wJJ2SHxIWQ4-89" value="queue (deque)" style="text;strokeColor=none;fillColor=none;align=left;verticalAlign=middle;spacingLeft=4;spacingRight=4;overflow=hidden;points=[[0,0.5],[1,0.5]];portConstraint=eastwest;rotatable=0;whiteSpace=wrap;html=1;" parent="grpiTjjE9wJJ2SHxIWQ4-88" vertex="1">
          <mxGeometry y="30" width="160" height="30" as="geometry" />
        </mxCell>
        <mxCell id="grpiTjjE9wJJ2SHxIWQ4-90" value="holds_pending (set)" style="text;strokeColor=none;fillColor=none;align=left;verticalAlign=middle;spacingLeft=4;spacingRight=4;overflow=hidden;points=[[0,0.5],[1,0.5]];portConstraint=eastwest;rotatable=0;whiteSpace=wrap;html=1;" parent="grpiTjjE9wJJ2SHxIWQ4-88" vertex="1">
          <mxGeometry y="60" width="160" height="30" as="geometry" />
        </mxCell>
        <mxCell id="grpiTjjE9wJJ2SHxIWQ4-91" value="hold_item (Book)" style="text;strokeColor=none;fillColor=none;align=left;verticalAlign=middle;spacingLeft=4;spacingRight=4;overflow=hidden;points=[[0,0.5],[1,0.5]];portConstraint=eastwest;rotatable=0;whiteSpace=wrap;html=1;" parent="grpiTjjE9wJJ2SHxIWQ4-88" vertex="1">
          <mxGeometry y="90" width="160" height="30" as="geometry" />
        </mxCell>
        <mxCell id="grpiTjjE9wJJ2SHxIWQ4-92" value="default_hold_window (int)" style="text;strokeColor=none;fillColor=none;align=left;verticalAlign=middle;spacingLeft=4;spacingRight=4;overflow=hidden;points=[[0,0.5],[1,0.5]];portConstraint=eastwest;rotatable=0;whiteSpace=wrap;html=1;" parent="grpiTjjE9wJJ2SHxIWQ4-88" vertex="1">
          <mxGeometry y="120" width="160" height="30" as="geometry" />
        </mxCell>
        <mxCell id="grpiTjjE9wJJ2SHxIWQ4-141" value="Methods" style="swimlane;fontStyle=0;childLayout=stackLayout;horizontal=1;startSize=30;horizontalStack=0;resizeParent=1;resizeParentMax=0;resizeLast=0;collapsible=1;marginBottom=0;whiteSpace=wrap;html=1;" parent="grpiTjjE9wJJ2SHxIWQ4-86" vertex="1">
          <mxGeometry x="20" y="190" width="160" height="150" as="geometry" />
        </mxCell>
        <mxCell id="grpiTjjE9wJJ2SHxIWQ4-142" value="add_to_queue()" style="text;strokeColor=none;fillColor=none;align=left;verticalAlign=middle;spacingLeft=4;spacingRight=4;overflow=hidden;points=[[0,0.5],[1,0.5]];portConstraint=eastwest;rotatable=0;whiteSpace=wrap;html=1;" parent="grpiTjjE9wJJ2SHxIWQ4-141" vertex="1">
          <mxGeometry y="30" width="160" height="30" as="geometry" />
        </mxCell>
        <mxCell id="grpiTjjE9wJJ2SHxIWQ4-143" value="advance_queue()" style="text;strokeColor=none;fillColor=none;align=left;verticalAlign=middle;spacingLeft=4;spacingRight=4;overflow=hidden;points=[[0,0.5],[1,0.5]];portConstraint=eastwest;rotatable=0;whiteSpace=wrap;html=1;" parent="grpiTjjE9wJJ2SHxIWQ4-141" vertex="1">
          <mxGeometry y="60" width="160" height="30" as="geometry" />
        </mxCell>
        <mxCell id="grpiTjjE9wJJ2SHxIWQ4-144" value="get_pos(user)" style="text;strokeColor=none;fillColor=none;align=left;verticalAlign=middle;spacingLeft=4;spacingRight=4;overflow=hidden;points=[[0,0.5],[1,0.5]];portConstraint=eastwest;rotatable=0;whiteSpace=wrap;html=1;" parent="grpiTjjE9wJJ2SHxIWQ4-141" vertex="1">
          <mxGeometry y="90" width="160" height="30" as="geometry" />
        </mxCell>
        <mxCell id="grpiTjjE9wJJ2SHxIWQ4-145" value="notify_waitlist_leader()" style="text;strokeColor=none;fillColor=none;align=left;verticalAlign=middle;spacingLeft=4;spacingRight=4;overflow=hidden;points=[[0,0.5],[1,0.5]];portConstraint=eastwest;rotatable=0;whiteSpace=wrap;html=1;" parent="grpiTjjE9wJJ2SHxIWQ4-141" vertex="1">
          <mxGeometry y="120" width="160" height="30" as="geometry" />
        </mxCell>
        <mxCell id="grpiTjjE9wJJ2SHxIWQ4-93" value="holds_pending is for tracking Users at the front of the waitlist. They have a set amount of time (eg, 3 days) to check out a Book they&#39;ve placed on hold until they are automatically removed from the waitlist" style="text;html=1;whiteSpace=wrap;strokeColor=black;fillColor=#F9C53F80;align=center;verticalAlign=middle;rounded=0;" parent="WIyWlLk6GJQsqaUBKTNV-1" vertex="1">
          <mxGeometry x="-180" y="490" width="160" height="160" as="geometry" />
        </mxCell>
        <mxCell id="grpiTjjE9wJJ2SHxIWQ4-95" value="queue (deque)" style="swimlane;fontStyle=0;childLayout=stackLayout;horizontal=1;startSize=30;horizontalStack=0;resizeParent=1;resizeParentMax=0;resizeLast=0;collapsible=1;marginBottom=0;whiteSpace=wrap;html=1;" parent="WIyWlLk6GJQsqaUBKTNV-1" vertex="1">
          <mxGeometry x="297" y="350" width="135" height="150" as="geometry">
            <mxRectangle x="310" y="100" width="90" height="30" as="alternateBounds" />
          </mxGeometry>
        </mxCell>
        <mxCell id="grpiTjjE9wJJ2SHxIWQ4-99" value="user2" style="rounded=1;whiteSpace=wrap;html=1;fillColor=#CBFFAE80;" parent="grpiTjjE9wJJ2SHxIWQ4-95" vertex="1">
          <mxGeometry y="30" width="135" height="40" as="geometry" />
        </mxCell>
        <mxCell id="grpiTjjE9wJJ2SHxIWQ4-100" value="user3" style="rounded=1;whiteSpace=wrap;html=1;fillColor=#CBFFAE80;" parent="grpiTjjE9wJJ2SHxIWQ4-95" vertex="1">
          <mxGeometry y="70" width="135" height="40" as="geometry" />
        </mxCell>
        <mxCell id="grpiTjjE9wJJ2SHxIWQ4-101" value="user4" style="rounded=1;whiteSpace=wrap;html=1;fillColor=#CBFFAE80;" parent="grpiTjjE9wJJ2SHxIWQ4-95" vertex="1">
          <mxGeometry y="110" width="135" height="40" as="geometry" />
        </mxCell>
        <mxCell id="grpiTjjE9wJJ2SHxIWQ4-165" style="edgeStyle=orthogonalEdgeStyle;rounded=0;orthogonalLoop=1;jettySize=auto;html=1;exitX=1;exitY=0.5;exitDx=0;exitDy=0;" parent="WIyWlLk6GJQsqaUBKTNV-1" source="grpiTjjE9wJJ2SHxIWQ4-118" target="grpiTjjE9wJJ2SHxIWQ4-51" edge="1">
          <mxGeometry relative="1" as="geometry" />
        </mxCell>
        <mxCell id="grpiTjjE9wJJ2SHxIWQ4-118" value="copies (list)" style="swimlane;fontStyle=0;childLayout=stackLayout;horizontal=1;startSize=30;horizontalStack=0;resizeParent=1;resizeParentMax=0;resizeLast=0;collapsible=1;marginBottom=0;whiteSpace=wrap;html=1;" parent="WIyWlLk6GJQsqaUBKTNV-1" vertex="1">
          <mxGeometry x="620" y="140" width="140" height="110" as="geometry" />
        </mxCell>
        <mxCell id="grpiTjjE9wJJ2SHxIWQ4-122" value="copy1" style="rounded=1;whiteSpace=wrap;html=1;fillColor=#CBFFAE80;" parent="grpiTjjE9wJJ2SHxIWQ4-118" vertex="1">
          <mxGeometry y="30" width="140" height="40" as="geometry" />
        </mxCell>
        <mxCell id="grpiTjjE9wJJ2SHxIWQ4-123" value="copy2" style="rounded=1;whiteSpace=wrap;html=1;fillColor=#CBFFAE80;" parent="grpiTjjE9wJJ2SHxIWQ4-118" vertex="1">
          <mxGeometry y="70" width="140" height="40" as="geometry" />
        </mxCell>
        <mxCell id="grpiTjjE9wJJ2SHxIWQ4-127" value="holds_pending (set)" style="swimlane;fontStyle=0;childLayout=stackLayout;horizontal=1;startSize=30;horizontalStack=0;resizeParent=1;resizeParentMax=0;resizeLast=0;collapsible=1;marginBottom=0;whiteSpace=wrap;html=1;" parent="WIyWlLk6GJQsqaUBKTNV-1" vertex="1">
          <mxGeometry x="290" y="520" width="196" height="80" as="geometry" />
        </mxCell>
        <mxCell id="grpiTjjE9wJJ2SHxIWQ4-134" value="" style="swimlane;startSize=0;" parent="grpiTjjE9wJJ2SHxIWQ4-127" vertex="1">
          <mxGeometry y="30" width="196" height="50" as="geometry" />
        </mxCell>
        <mxCell id="grpiTjjE9wJJ2SHxIWQ4-135" value="datetime.date" style="rounded=1;whiteSpace=wrap;html=1;fillColor=#CBFFAE80;" parent="grpiTjjE9wJJ2SHxIWQ4-134" vertex="1">
          <mxGeometry x="100" y="5" width="90" height="40" as="geometry" />
        </mxCell>
        <mxCell id="grpiTjjE9wJJ2SHxIWQ4-138" value="user2" style="rounded=1;whiteSpace=wrap;html=1;fillColor=#CBFFAE80;" parent="grpiTjjE9wJJ2SHxIWQ4-134" vertex="1">
          <mxGeometry x="10" y="5" width="85" height="40" as="geometry" />
        </mxCell>
        <mxCell id="grpiTjjE9wJJ2SHxIWQ4-146" value="&lt;font style=&quot;font-size: 18px;&quot;&gt;Library&lt;/font&gt;" style="swimlane;whiteSpace=wrap;html=1;" parent="WIyWlLk6GJQsqaUBKTNV-1" vertex="1">
          <mxGeometry x="-80" y="30" width="220" height="240" as="geometry" />
        </mxCell>
        <mxCell id="grpiTjjE9wJJ2SHxIWQ4-151" value="Instance Variables" style="swimlane;fontStyle=0;childLayout=stackLayout;horizontal=1;startSize=30;horizontalStack=0;resizeParent=1;resizeParentMax=0;resizeLast=0;collapsible=1;marginBottom=0;whiteSpace=wrap;html=1;" parent="grpiTjjE9wJJ2SHxIWQ4-146" vertex="1">
          <mxGeometry x="30" y="30" width="140" height="60" as="geometry" />
        </mxCell>
        <mxCell id="grpiTjjE9wJJ2SHxIWQ4-152" value="Inventory (list[Book])" style="text;strokeColor=none;fillColor=none;align=left;verticalAlign=middle;spacingLeft=4;spacingRight=4;overflow=hidden;points=[[0,0.5],[1,0.5]];portConstraint=eastwest;rotatable=0;whiteSpace=wrap;html=1;" parent="grpiTjjE9wJJ2SHxIWQ4-151" vertex="1">
          <mxGeometry y="30" width="140" height="30" as="geometry" />
        </mxCell>
        <mxCell id="grpiTjjE9wJJ2SHxIWQ4-1" value="Methods" style="swimlane;fontStyle=0;childLayout=stackLayout;horizontal=1;startSize=30;horizontalStack=0;resizeParent=1;resizeParentMax=0;resizeLast=0;collapsible=1;marginBottom=0;whiteSpace=wrap;html=1;" parent="grpiTjjE9wJJ2SHxIWQ4-146" vertex="1">
          <mxGeometry x="30" y="100" width="160" height="120" as="geometry" />
        </mxCell>
        <mxCell id="grpiTjjE9wJJ2SHxIWQ4-3" value="checkout_item()" style="text;strokeColor=none;fillColor=none;align=left;verticalAlign=middle;spacingLeft=4;spacingRight=4;overflow=hidden;points=[[0,0.5],[1,0.5]];portConstraint=eastwest;rotatable=0;whiteSpace=wrap;html=1;" parent="grpiTjjE9wJJ2SHxIWQ4-1" vertex="1">
          <mxGeometry y="30" width="160" height="30" as="geometry" />
        </mxCell>
        <mxCell id="grpiTjjE9wJJ2SHxIWQ4-4" value="return_item()" style="text;strokeColor=none;fillColor=none;align=left;verticalAlign=middle;spacingLeft=4;spacingRight=4;overflow=hidden;points=[[0,0.5],[1,0.5]];portConstraint=eastwest;rotatable=0;whiteSpace=wrap;html=1;" parent="grpiTjjE9wJJ2SHxIWQ4-1" vertex="1">
          <mxGeometry y="60" width="160" height="30" as="geometry" />
        </mxCell>
        <mxCell id="grpiTjjE9wJJ2SHxIWQ4-9" value="parse_CSV()" style="text;strokeColor=none;fillColor=none;align=left;verticalAlign=middle;spacingLeft=4;spacingRight=4;overflow=hidden;points=[[0,0.5],[1,0.5]];portConstraint=eastwest;rotatable=0;whiteSpace=wrap;html=1;" parent="grpiTjjE9wJJ2SHxIWQ4-1" vertex="1">
          <mxGeometry y="90" width="160" height="30" as="geometry" />
        </mxCell>
        <mxCell id="grpiTjjE9wJJ2SHxIWQ4-155" style="rounded=0;orthogonalLoop=1;jettySize=auto;html=1;exitX=1;exitY=0.5;exitDx=0;exitDy=0;entryX=0.011;entryY=0.164;entryDx=0;entryDy=0;entryPerimeter=0;" parent="WIyWlLk6GJQsqaUBKTNV-1" source="grpiTjjE9wJJ2SHxIWQ4-152" target="grpiTjjE9wJJ2SHxIWQ4-8" edge="1">
          <mxGeometry relative="1" as="geometry" />
        </mxCell>
        <mxCell id="grpiTjjE9wJJ2SHxIWQ4-159" value="" style="group" parent="WIyWlLk6GJQsqaUBKTNV-1" vertex="1" connectable="0">
          <mxGeometry x="790" y="270" width="220" height="160" as="geometry" />
        </mxCell>
        <mxCell id="grpiTjjE9wJJ2SHxIWQ4-51" value="copy (dict)" style="shape=table;startSize=30;container=1;collapsible=0;childLayout=tableLayout;strokeColor=default;fontSize=16;" parent="grpiTjjE9wJJ2SHxIWQ4-159" vertex="1">
          <mxGeometry width="220" height="165" as="geometry" />
        </mxCell>
        <mxCell id="grpiTjjE9wJJ2SHxIWQ4-52" value="" style="shape=tableRow;horizontal=0;startSize=0;swimlaneHead=0;swimlaneBody=0;strokeColor=inherit;top=0;left=0;bottom=0;right=0;collapsible=0;dropTarget=0;fillColor=none;points=[[0,0.5],[1,0.5]];portConstraint=eastwest;fontSize=16;" parent="grpiTjjE9wJJ2SHxIWQ4-51" vertex="1">
          <mxGeometry y="30" width="220" height="45" as="geometry" />
        </mxCell>
        <mxCell id="grpiTjjE9wJJ2SHxIWQ4-53" value="&lt;font style=&quot;font-size: 12px;&quot;&gt;borrowed_by&lt;/font&gt;" style="shape=partialRectangle;html=1;whiteSpace=wrap;connectable=0;strokeColor=inherit;overflow=hidden;fillColor=none;top=0;left=0;bottom=0;right=0;pointerEvents=1;fontSize=16;" parent="grpiTjjE9wJJ2SHxIWQ4-52" vertex="1">
          <mxGeometry width="110" height="45" as="geometry">
            <mxRectangle width="110" height="45" as="alternateBounds" />
          </mxGeometry>
        </mxCell>
        <mxCell id="grpiTjjE9wJJ2SHxIWQ4-55" value="" style="shape=partialRectangle;html=1;whiteSpace=wrap;connectable=0;strokeColor=inherit;overflow=hidden;fillColor=none;top=0;left=0;bottom=0;right=0;pointerEvents=1;fontSize=16;" parent="grpiTjjE9wJJ2SHxIWQ4-52" vertex="1">
          <mxGeometry x="110" width="110" height="45" as="geometry">
            <mxRectangle width="110" height="45" as="alternateBounds" />
          </mxGeometry>
        </mxCell>
        <mxCell id="grpiTjjE9wJJ2SHxIWQ4-56" value="" style="shape=tableRow;horizontal=0;startSize=0;swimlaneHead=0;swimlaneBody=0;strokeColor=inherit;top=0;left=0;bottom=0;right=0;collapsible=0;dropTarget=0;fillColor=none;points=[[0,0.5],[1,0.5]];portConstraint=eastwest;fontSize=16;" parent="grpiTjjE9wJJ2SHxIWQ4-51" vertex="1">
          <mxGeometry y="75" width="220" height="45" as="geometry" />
        </mxCell>
        <mxCell id="grpiTjjE9wJJ2SHxIWQ4-57" value="&lt;font style=&quot;font-size: 12px;&quot;&gt;borrow_date&lt;/font&gt;" style="shape=partialRectangle;html=1;whiteSpace=wrap;connectable=0;strokeColor=inherit;overflow=hidden;fillColor=none;top=0;left=0;bottom=0;right=0;pointerEvents=1;fontSize=16;" parent="grpiTjjE9wJJ2SHxIWQ4-56" vertex="1">
          <mxGeometry width="110" height="45" as="geometry">
            <mxRectangle width="110" height="45" as="alternateBounds" />
          </mxGeometry>
        </mxCell>
        <mxCell id="grpiTjjE9wJJ2SHxIWQ4-59" value="" style="shape=partialRectangle;html=1;whiteSpace=wrap;connectable=0;strokeColor=inherit;overflow=hidden;fillColor=none;top=0;left=0;bottom=0;right=0;pointerEvents=1;fontSize=16;" parent="grpiTjjE9wJJ2SHxIWQ4-56" vertex="1">
          <mxGeometry x="110" width="110" height="45" as="geometry">
            <mxRectangle width="110" height="45" as="alternateBounds" />
          </mxGeometry>
        </mxCell>
        <mxCell id="0XmmFLcXIWEUid3F81OW-0" style="shape=tableRow;horizontal=0;startSize=0;swimlaneHead=0;swimlaneBody=0;strokeColor=inherit;top=0;left=0;bottom=0;right=0;collapsible=0;dropTarget=0;fillColor=none;points=[[0,0.5],[1,0.5]];portConstraint=eastwest;fontSize=16;" vertex="1" parent="grpiTjjE9wJJ2SHxIWQ4-51">
          <mxGeometry y="120" width="220" height="45" as="geometry" />
        </mxCell>
        <mxCell id="0XmmFLcXIWEUid3F81OW-1" value="&lt;font style=&quot;font-size: 12px;&quot;&gt;return_date&lt;/font&gt;" style="shape=partialRectangle;html=1;whiteSpace=wrap;connectable=0;strokeColor=inherit;overflow=hidden;fillColor=none;top=0;left=0;bottom=0;right=0;pointerEvents=1;fontSize=16;" vertex="1" parent="0XmmFLcXIWEUid3F81OW-0">
          <mxGeometry width="110" height="45" as="geometry">
            <mxRectangle width="110" height="45" as="alternateBounds" />
          </mxGeometry>
        </mxCell>
        <mxCell id="0XmmFLcXIWEUid3F81OW-2" style="shape=partialRectangle;html=1;whiteSpace=wrap;connectable=0;strokeColor=inherit;overflow=hidden;fillColor=none;top=0;left=0;bottom=0;right=0;pointerEvents=1;fontSize=16;" vertex="1" parent="0XmmFLcXIWEUid3F81OW-0">
          <mxGeometry x="110" width="110" height="45" as="geometry">
            <mxRectangle width="110" height="45" as="alternateBounds" />
          </mxGeometry>
        </mxCell>
        <mxCell id="grpiTjjE9wJJ2SHxIWQ4-82" value="datetime.date" style="rounded=1;whiteSpace=wrap;html=1;fillColor=#CBFFAE80;" parent="grpiTjjE9wJJ2SHxIWQ4-159" vertex="1">
          <mxGeometry x="120" y="80" width="80" height="30" as="geometry" />
        </mxCell>
        <mxCell id="grpiTjjE9wJJ2SHxIWQ4-117" value="user1" style="rounded=1;whiteSpace=wrap;html=1;fillColor=#CBFFAE80;" parent="grpiTjjE9wJJ2SHxIWQ4-159" vertex="1">
          <mxGeometry x="120" y="35" width="80" height="30" as="geometry" />
        </mxCell>
        <mxCell id="0XmmFLcXIWEUid3F81OW-3" value="datetime.date" style="rounded=1;whiteSpace=wrap;html=1;fillColor=#CBFFAE80;" vertex="1" parent="grpiTjjE9wJJ2SHxIWQ4-159">
          <mxGeometry x="120" y="130" width="80" height="30" as="geometry" />
        </mxCell>
        <mxCell id="grpiTjjE9wJJ2SHxIWQ4-162" style="edgeStyle=orthogonalEdgeStyle;rounded=0;orthogonalLoop=1;jettySize=auto;html=1;exitX=1;exitY=0.5;exitDx=0;exitDy=0;entryX=0.004;entryY=0.136;entryDx=0;entryDy=0;entryPerimeter=0;" parent="WIyWlLk6GJQsqaUBKTNV-1" source="grpiTjjE9wJJ2SHxIWQ4-20" target="grpiTjjE9wJJ2SHxIWQ4-118" edge="1">
          <mxGeometry relative="1" as="geometry" />
        </mxCell>
        <mxCell id="grpiTjjE9wJJ2SHxIWQ4-163" style="rounded=0;orthogonalLoop=1;jettySize=auto;html=1;exitX=0;exitY=0.5;exitDx=0;exitDy=0;entryX=0.558;entryY=0.006;entryDx=0;entryDy=0;entryPerimeter=0;" parent="WIyWlLk6GJQsqaUBKTNV-1" source="grpiTjjE9wJJ2SHxIWQ4-21" target="grpiTjjE9wJJ2SHxIWQ4-86" edge="1">
          <mxGeometry relative="1" as="geometry" />
        </mxCell>
        <mxCell id="grpiTjjE9wJJ2SHxIWQ4-164" style="rounded=0;orthogonalLoop=1;jettySize=auto;html=1;exitX=1;exitY=0.5;exitDx=0;exitDy=0;entryX=0.013;entryY=0.08;entryDx=0;entryDy=0;entryPerimeter=0;" parent="WIyWlLk6GJQsqaUBKTNV-1" source="grpiTjjE9wJJ2SHxIWQ4-8" target="grpiTjjE9wJJ2SHxIWQ4-15" edge="1">
          <mxGeometry relative="1" as="geometry" />
        </mxCell>
        <mxCell id="grpiTjjE9wJJ2SHxIWQ4-166" style="rounded=0;orthogonalLoop=1;jettySize=auto;html=1;exitX=1;exitY=0.5;exitDx=0;exitDy=0;entryX=0.019;entryY=0.087;entryDx=0;entryDy=0;entryPerimeter=0;" parent="WIyWlLk6GJQsqaUBKTNV-1" source="grpiTjjE9wJJ2SHxIWQ4-89" target="grpiTjjE9wJJ2SHxIWQ4-95" edge="1">
          <mxGeometry relative="1" as="geometry" />
        </mxCell>
        <mxCell id="grpiTjjE9wJJ2SHxIWQ4-167" style="rounded=0;orthogonalLoop=1;jettySize=auto;html=1;exitX=1;exitY=0.5;exitDx=0;exitDy=0;entryX=0;entryY=0.25;entryDx=0;entryDy=0;" parent="WIyWlLk6GJQsqaUBKTNV-1" source="grpiTjjE9wJJ2SHxIWQ4-90" target="grpiTjjE9wJJ2SHxIWQ4-127" edge="1">
          <mxGeometry relative="1" as="geometry" />
        </mxCell>
      </root>
    </mxGraphModel>
  </diagram>
</mxfile>
